<?xml version="1.0" ?><svg viewBox="0 0 129.88 129.88" xmlns="http://www.w3.org/2000/svg" xmlns:xlink="http://www.w3.org/1999/xlink"><defs><style>.cls-1{fill:url(#linear-gradient);}.cls-2{fill:#fff;}.cls-3{fill:#ffcb05;stroke:#42210b;}.cls-3,.cls-7,.cls-9{stroke-linejoin:round;stroke-width:4.6px;}.cls-4{fill:url(#linear-gradient-2);}.cls-5{fill:url(#linear-gradient-3);}.cls-6{fill:url(#linear-gradient-4);}.cls-7,.cls-9{fill:none;stroke:#fff;}.cls-8{fill:url(#linear-gradient-5);}.cls-9{stroke-linecap:round;}</style><linearGradient gradientUnits="userSpaceOnUse" id="linear-gradient" x1="20.99" x2="108.89" y1="90.5" y2="39.76"><stop offset="0.02" stop-color="red"/><stop offset="1" stop-color="#9e005d"/></linearGradient><linearGradient id="linear-gradient-2" x1="63.24" x2="63.83" xlink:href="#linear-gradient" y1="40.6" y2="40.6"/><linearGradient id="linear-gradient-3" x1="40.93" x2="49.91" xlink:href="#linear-gradient" y1="49.95" y2="49.95"/><linearGradient id="linear-gradient-4" x1="32.87" x2="97.01" xlink:href="#linear-gradient" y1="55.56" y2="55.56"/><linearGradient id="linear-gradient-5" x1="57.87" x2="72.01" xlink:href="#linear-gradient" y1="82.05" y2="82.05"/></defs><title/><g data-name="Layer 1" id="Layer_1"><path class="cls-1" d="M86.36,14.38H43.52A13.65,13.65,0,0,0,31.7,21.2L10.28,58.31a13.62,13.62,0,0,0,0,13.64l21.42,37.1a13.64,13.64,0,0,0,11.82,6.83H86.36a13.64,13.64,0,0,0,11.82-6.83L119.6,72a13.67,13.67,0,0,0,0-13.64L98.18,21.2A13.65,13.65,0,0,0,86.36,14.38Z"/><path class="cls-2" d="M65.22,44,87.16,61.24V84.65a5.64,5.64,0,0,1-5.63,5.63H48.35a5.63,5.63,0,0,1-5.63-5.63v-23L65.22,44m0-3.59a3.63,3.63,0,0,0-2.21.76l-22.5,17.6a3.57,3.57,0,0,0-1.37,2.82v23a9.23,9.23,0,0,0,9.21,9.22H81.53a9.23,9.23,0,0,0,9.21-9.22V61.24a3.57,3.57,0,0,0-1.37-2.82L67.43,41.2a3.58,3.58,0,0,0-2.21-.77Z"/><path class="cls-3" d="M96,64.87,67.43,41.32a3.49,3.49,0,0,0-2.49-1,3.53,3.53,0,0,0-2.5,1L33.89,64.87a3.49,3.49,0,0,0,4.94,4.94L64.94,48.7,91.05,69.81A3.49,3.49,0,0,0,96,64.87Z"/><path class="cls-4" d="M63.83,40.47a4.35,4.35,0,0,0-.59.25A2.55,2.55,0,0,1,63.83,40.47Z"/><path class="cls-5" d="M42.72,61.71a1.79,1.79,0,0,1-1.79-1.79V41.66a3.48,3.48,0,0,1,3.47-3.48h2a3.48,3.48,0,0,1,3.48,3.48V59.92a1.79,1.79,0,0,1-1.79,1.79Z"/><path class="cls-2" d="M46.43,40a1.69,1.69,0,0,1,1.69,1.69V59.92h-5.4V41.66A1.69,1.69,0,0,1,44.4,40h2m0-3.58h-2a5.27,5.27,0,0,0-5.26,5.27V59.92a3.58,3.58,0,0,0,3.58,3.58h5.4a3.58,3.58,0,0,0,3.58-3.58V41.66a5.27,5.27,0,0,0-5.27-5.27Z"/><path class="cls-6" d="M96,69.81a3.49,3.49,0,0,1-4.93,0L64.94,48.7l-.18.14-25.93,21a3.49,3.49,0,0,1-4.94-4.94L62.44,41.31a3.75,3.75,0,0,1,.8-.59,4.35,4.35,0,0,1,.59-.25,3.58,3.58,0,0,1,1.11-.18,3.53,3.53,0,0,1,2.5,1L96,64.87A3.48,3.48,0,0,1,96,69.81Z"/><path class="cls-7" d="M96,64.87,67.43,41.32a3.49,3.49,0,0,0-2.49-1,3.53,3.53,0,0,0-2.5,1L33.89,64.87a3.49,3.49,0,0,0,4.94,4.94L64.94,48.7,91.05,69.81A3.49,3.49,0,0,0,96,64.87Z"/><path class="cls-8" d="M59.66,92.08a1.8,1.8,0,0,1-1.79-1.8V76.37A4.34,4.34,0,0,1,62.21,72h5.46A4.34,4.34,0,0,1,72,76.37V90.28a1.8,1.8,0,0,1-1.79,1.8Z"/><path class="cls-2" d="M67.67,73.83a2.55,2.55,0,0,1,2.55,2.54V90.28H59.66V76.37a2.55,2.55,0,0,1,2.55-2.54h5.46m0-3.59H62.21a6.14,6.14,0,0,0-6.14,6.13V90.28a3.59,3.59,0,0,0,3.59,3.59H70.22a3.58,3.58,0,0,0,3.58-3.59V76.37a6.14,6.14,0,0,0-6.13-6.13Z"/><line class="cls-9" x1="80.28" x2="80.28" y1="74.33" y2="84.97"/></g></svg>